<svg width="400" height="150" viewBox="0 0 400 150" xmlns="http://www.w3.org/2000/svg">
  <rect x="50" y="90" width="300" height="15" rx="5" fill="#333" />
  
  <path d="M60 85 L65 55 Q70 45 180 45 L180 85 Z" fill="#CC0000" />
  <rect x="70" y="55" width="100" height="20" fill="#FF4D4D" opacity="0.6" />
  
  <path d="M340 85 L335 55 Q330 45 220 45 L220 85 Z" fill="#0033CC" />
  <rect x="230" y="55" width="100" height="20" fill="#4D88FF" opacity="0.6" />
  
  <rect x="180" y="40" width="40" height="50" rx="2" fill="#222" />
  <line x1="185" y1="50" x2="215" y2="50" stroke="#444" stroke-width="2" />
  <line x1="185" y1="60" x2="215" y2="60" stroke="#444" stroke-width="2" />
  <line x1="185" y1="70" x2="215" y2="70" stroke="#444" stroke-width="2" />
  <line x1="185" y1="80" x2="215" y2="80" stroke="#444" stroke-width="2" />

  <rect x="70" y="48" width="80" height="5" rx="2" fill="white" opacity="0.3" />
  <rect x="250" y="48" width="80" height="5" rx="2" fill="white" opacity="0.3" />
</svg>
